<svg width="45" height="183" viewBox="0 0 45 183" fill="none" xmlns="http://www.w3.org/2000/svg">
<g opacity="0.6">
<rect x="13" y="83" width="17" height="16" fill="white"/>
<path d="M23.54 83.74L29.26 89.46C29.6633 89.8633 29.865 90.3767 29.865 91C29.865 91.6233 29.6633 92.1367 29.26 92.54L23.485 98.315C23.0817 98.7183 22.5779 98.9112 21.9736 98.8936C21.3679 98.8745 20.8633 98.6633 20.46 98.26C20.0567 97.8567 19.855 97.3433 19.855 96.72C19.855 96.0967 20.0567 95.5833 20.46 95.18L22.44 93.2L15.345 93.2C14.7217 93.2 14.2083 92.9895 13.805 92.5686C13.4017 92.1462 13.2 91.6233 13.2 91C13.2 90.3767 13.4112 89.8545 13.8336 89.4336C14.2545 89.0112 14.7767 88.8 15.4 88.8L22.44 88.8L20.405 86.765C20.0017 86.3617 19.8088 85.8571 19.8264 85.2514C19.8455 84.6471 20.0567 84.1433 20.46 83.74C20.8633 83.3367 21.3767 83.135 22 83.135C22.6233 83.135 23.1367 83.3367 23.54 83.74ZM22 69C18.9567 69 16.0967 69.5779 13.42 70.7336C10.7433 71.8879 8.415 73.455 6.435 75.435C4.455 77.415 2.88786 79.7433 1.7336 82.42C0.577865 85.0967 -2.18936e-06 87.9567 -1.9233e-06 91C-1.65724e-06 94.0433 0.577866 96.9033 1.7336 99.58C2.88787 102.257 4.455 104.585 6.435 106.565C8.415 108.545 10.7433 110.113 13.42 111.269C16.0967 112.423 18.9567 113 22 113C25.0433 113 27.9033 112.423 30.58 111.269C33.2567 110.113 35.585 108.545 37.565 106.565C39.545 104.585 41.1121 102.257 42.2664 99.58C43.4221 96.9033 44 94.0433 44 91C44 87.9567 43.4221 85.0967 42.2664 82.42C41.1121 79.7433 39.545 77.415 37.565 75.435C35.585 73.455 33.2567 71.8879 30.58 70.7336C27.9033 69.5779 25.0433 69 22 69Z" fill="#619A3F"/>
<path d="M44.9582 8.60695C44.2268 34.9579 33.9074 67.3419 14 70.2202L45 100C44.8758 71.6528 44.9168 27.1854 44.9582 8.60695C44.9861 7.60193 45 6.60568 45 5.62018C45 -3.54336 44.979 -0.755609 44.9582 8.60695Z" fill="#619A3F"/>
<path d="M44.9595 173.757C44.2517 147.301 34.2652 114.788 15 111.898L45 82C44.8798 110.46 44.9194 155.105 44.9595 173.757C44.9865 174.766 45 175.766 45 176.756C45 185.956 44.9797 183.157 44.9595 173.757Z" fill="#619A3F"/>
</g>
</svg>
