<svg width="96" height="96" viewBox="0 0 96 96" fill="none" xmlns="http://www.w3.org/2000/svg">
<path d="M36.6488 35.854V60.1459C36.6488 61.9622 37.4434 63.2865 39.0326 64.1189C40.6218 64.9513 42.1731 64.8757 43.6866 63.8919L62.5299 51.8595C63.9677 51.027 64.6866 49.7405 64.6866 48C64.6866 46.2595 63.9677 44.973 62.5299 44.1405L43.6866 32.1081C42.1731 31.1243 40.6218 31.0486 39.0326 31.8811C37.4434 32.7135 36.6488 34.0378 36.6488 35.854ZM48.0001 93.4054C41.7191 93.4054 35.8164 92.2128 30.292 89.8275C24.7677 87.4452 19.9623 84.2108 15.8758 80.1243C11.7893 76.0378 8.55494 71.2324 6.17267 65.7081C3.78738 60.1838 2.59473 54.2811 2.59473 48C2.59473 41.7189 3.78738 35.8162 6.17267 30.2919C8.55494 24.7676 11.7893 19.9622 15.8758 15.8757C19.9623 11.7892 24.7677 8.55329 30.292 6.16799C35.8164 3.78572 41.7191 2.59459 48.0001 2.59459C54.2812 2.59459 60.1839 3.78572 65.7082 6.16799C71.2326 8.55329 76.038 11.7892 80.1245 15.8757C84.2109 19.9622 87.4453 24.7676 89.8276 30.2919C92.2129 35.8162 93.4055 41.7189 93.4055 48C93.4055 54.2811 92.2129 60.1838 89.8276 65.7081C87.4453 71.2324 84.2109 76.0378 80.1245 80.1243C76.038 84.2108 71.2326 87.4452 65.7082 89.8275C60.1839 92.2128 54.2812 93.4054 48.0001 93.4054ZM48.0001 84.3243C58.065 84.3243 66.636 80.7872 73.7132 73.7131C80.7874 66.6359 84.3245 58.0649 84.3245 48C84.3245 37.9351 80.7874 29.3641 73.7132 22.2869C66.636 15.2128 58.065 11.6757 48.0001 11.6757C37.9353 11.6757 29.3658 15.2128 22.2916 22.2869C15.2144 29.3641 11.6758 37.9351 11.6758 48C11.6758 58.0649 15.2144 66.6359 22.2916 73.7131C29.3658 80.7872 37.9353 84.3243 48.0001 84.3243Z" fill="#619A3F"/>
</svg>
