<svg width="45" height="183" viewBox="0 0 45 183" fill="none" xmlns="http://www.w3.org/2000/svg">
<g opacity="0.6">
<rect width="17" height="16" transform="matrix(-1 0 0 1 32 83)" fill="white"/>
<path d="M21.46 83.74L15.74 89.46C15.3367 89.8633 15.135 90.3767 15.135 91C15.135 91.6233 15.3367 92.1367 15.74 92.54L21.515 98.315C21.9183 98.7183 22.4221 98.9112 23.0264 98.8936C23.6321 98.8745 24.1367 98.6633 24.54 98.26C24.9433 97.8567 25.145 97.3433 25.145 96.72C25.145 96.0967 24.9433 95.5833 24.54 95.18L22.56 93.2L29.655 93.2C30.2783 93.2 30.7917 92.9895 31.195 92.5686C31.5983 92.1462 31.8 91.6233 31.8 91C31.8 90.3767 31.5888 89.8545 31.1664 89.4336C30.7455 89.0112 30.2233 88.8 29.6 88.8L22.56 88.8L24.595 86.765C24.9983 86.3617 25.1912 85.8571 25.1736 85.2514C25.1545 84.6471 24.9433 84.1433 24.54 83.74C24.1367 83.3367 23.6233 83.135 23 83.135C22.3767 83.135 21.8633 83.3367 21.46 83.74ZM23 69C26.0433 69 28.9033 69.5779 31.58 70.7336C34.2567 71.8879 36.585 73.455 38.565 75.435C40.545 77.415 42.1121 79.7433 43.2664 82.42C44.4221 85.0967 45 87.9567 45 91C45 94.0433 44.4221 96.9033 43.2664 99.58C42.1121 102.257 40.545 104.585 38.565 106.565C36.585 108.545 34.2567 110.113 31.58 111.269C28.9033 112.423 26.0433 113 23 113C19.9567 113 17.0967 112.423 14.42 111.269C11.7433 110.113 9.41499 108.545 7.43499 106.565C5.45499 104.585 3.88786 102.257 2.73359 99.58C1.57786 96.9033 0.999994 94.0433 0.999994 91C0.999995 87.9567 1.57786 85.0967 2.7336 82.42C3.88787 79.7433 5.455 77.415 7.435 75.435C9.415 73.455 11.7433 71.8879 14.42 70.7336C17.0967 69.5779 19.9567 69 23 69Z" fill="#619A3F"/>
<path d="M0.0418418 8.60695C0.773215 34.9579 11.0926 67.3419 31 70.2202L0 100C0.124218 71.6528 0.0832467 27.1854 0.0418418 8.60695C0.0139473 7.60193 0 6.60568 0 5.62018C0 -3.54336 0.0209759 -0.755609 0.0418418 8.60695Z" fill="#619A3F"/>
<path d="M0.040492 173.757C0.748272 147.301 10.7348 114.788 30 111.898L0 82C0.120211 110.46 0.0805613 155.105 0.040492 173.757C0.0134973 174.766 0 175.766 0 176.756C0 185.956 0.0202993 183.157 0.040492 173.757Z" fill="#619A3F"/>
</g>
</svg>
